<?xml version="1.0" encoding="UTF-8" standalone="no"?>
<svg
   width="24"
   height="24"
   viewBox="0 0 24 24"
   version="1.1"
   id="svg6"
   xmlns="http://www.w3.org/2000/svg"
   xmlns:svg="http://www.w3.org/2000/svg">
  <path
     id="white"
     style="fill:#ffffff;stroke-width:1.0751;stroke-linecap:square;stroke-linejoin:round"
     d="M 2,0 C 0.892,0 0,0.892 0,2 v 20 c 0,1.108 0.892,2 2,2 h 20 c 1.108,0 2,-0.892 2,-2 V 2 C 24,0.892 23.108,0 22,0 Z M 12,5.5898438 18,11.589844 16.589844,13 12,8.4101562 7.410156,13 6,11.589844 Z M 6,16 h 12 v 2 H 6 Z" />
  <path
     id="black"
     style="fill:#000000;stroke-width:1.0751;stroke-linecap:square;stroke-linejoin:round"
     d="m 29.869388,0.39183673 c -1.108,0 -2,0.89199997 -2,1.99999997 V 22.391837 c 0,1.108 0.892,2 2,2 h 20 c 1.108,0 2,-0.892 2,-2 V 2.3918367 c 0,-1.108 -0.892,-1.99999997 -2,-1.99999997 z m 10,5.58984377 6,6.0000005 -1.410156,1.410156 -4.589844,-4.5898441 -4.589844,4.5898441 -1.410156,-1.410156 z m -6,10.4101565 h 12 v 2 h -12 z" />
  <path
     id="dark"
     style="fill:#272727;fill-opacity:1;stroke-width:1.0751;stroke-linecap:square;stroke-linejoin:round"
     d="m -29.444897,0.44081631 c -1.108001,0 -2.000001,0.89199999 -2.000001,1.99999999 V 22.440817 c 0,1.108 0.892,2 2.000001,2 h 19.9999995 c 1.107999,0 2,-0.892 2,-2 V 2.4408163 c 0,-1.108 -0.892001,-1.99999999 -2,-1.99999999 z m 10,5.58984379 6,5.9999999 -1.410156,1.410157 -4.589844,-4.5898445 -4.589844,4.5898445 -1.410156,-1.410157 z m -6,10.4101569 h 12 v 2 h -12 z" />
  <path
     id="light"
     style="fill:#f9f9f9;fill-opacity:1;stroke-width:1.0751;stroke-linecap:square;stroke-linejoin:round"
     d="m 2.0979596,26.546938 c -1.10800102,0 -2.00000102,0.892 -2.00000102,2 v 20.000001 c 0,1.108 0.892,2 2.00000102,2 H 22.097959 c 1.107999,0 2,-0.892 2,-2 V 28.546938 c 0,-1.108 -0.892001,-2 -2,-2 z m 10.0000004,5.589844 6,6 -1.410156,1.410157 -4.589844,-4.589845 -4.5898444,4.589845 -1.410156,-1.410157 z M 6.0979596,42.546939 H 18.09796 v 2 H 6.0979596 Z" />
</svg>
